<svg width="24" height="25" viewBox="0 0 24 25" fill="none" xmlns="http://www.w3.org/2000/svg">
<path fill-rule="evenodd" clip-rule="evenodd" d="M5.17895 2.06394C3.01632 2.06394 1.26316 3.8171 1.26316 5.97973V19.6218C1.26316 21.7845 3.01632 23.5376 5.17895 23.5376H18.8211C20.9837 23.5376 22.7368 21.7845 22.7368 19.6218V5.97973C22.7368 3.8171 20.9837 2.06394 18.8211 2.06394H5.17895ZM0 5.97973C0 3.11948 2.31869 0.800781 5.17895 0.800781H18.8211C21.6813 0.800781 24 3.11948 24 5.97973V19.6218C24 22.4821 21.6813 24.8008 18.8211 24.8008H5.17895C2.31869 24.8008 0 22.4821 0 19.6218V5.97973Z" fill="white"/>
<path d="M16.5472 11.8843H19.5788L19.1999 14.9159H16.5472V24.1698H12.6365V14.8856H10.5144V11.854H12.6365V9.85692C12.6365 8.53313 12.9662 7.53524 13.6256 6.86324C14.2849 6.18871 15.3839 5.84766 16.9262 5.84766H19.5788V8.87924H17.9607C17.3658 8.87924 16.9792 8.97018 16.8239 9.15966C16.6272 9.4329 16.5357 9.76794 16.5662 10.1032L16.5472 11.8843Z" fill="white"/>
</svg>
