<svg width="24" height="25" viewBox="0 0 24 25" fill="none" xmlns="http://www.w3.org/2000/svg">
<path d="M12 2.96265C15.2022 2.96265 15.5842 2.96265 16.852 3.0358C20.1029 3.18209 21.6228 4.72628 21.769 7.95283C21.8259 9.21663 21.8381 9.5783 21.8381 12.8008C21.8381 16.0233 21.8381 16.3849 21.769 17.6528C21.6187 20.8753 20.107 22.4235 16.852 22.5698C15.5842 22.6267 15.2265 22.6389 12 22.6389C8.77345 22.6389 8.41585 22.6389 7.15205 22.5698C3.90112 22.4195 2.38131 20.8712 2.23095 17.6487C2.17406 16.3849 2.16187 16.0233 2.16187 12.8008C2.16187 9.5783 2.16187 9.21663 2.23095 7.95283C2.38131 4.72628 3.89705 3.18209 7.15205 3.03173C8.41585 2.97484 8.79783 2.96265 12 2.96265ZM12 0.800781C8.74907 0.800781 8.3427 0.800781 7.05452 0.873927C2.69421 1.07305 0.272265 3.49093 0.073146 7.85124C0 9.13536 0 9.54172 0 12.8008C0 16.0598 0 16.4581 0.073146 17.7503C0.272265 22.1066 2.69015 24.5285 7.05046 24.7276C8.33458 24.7886 8.74094 24.8008 12 24.8008C15.2591 24.8008 15.6573 24.8008 16.9495 24.7276C21.3017 24.5285 23.7318 22.1106 23.9269 17.7503C23.9878 16.4703 24 16.0598 24 12.8008C24 9.54172 24 9.14348 23.9269 7.8553C23.7318 3.49905 21.3099 1.07305 16.9495 0.873927C15.6695 0.800781 15.2591 0.800781 12 0.800781ZM12 6.64027C10.7804 6.63946 9.588 7.00043 8.57362 7.67749C7.55923 8.35456 6.76847 9.31729 6.30139 10.4439C5.8343 11.5705 5.71188 12.8103 5.94961 14.0065C6.18734 15.2027 6.77455 16.3015 7.63692 17.1639C8.4993 18.0262 9.59809 18.6134 10.7943 18.8512C11.9905 19.0889 13.2303 18.9665 14.3569 18.4994C15.4835 18.0323 16.4462 17.2415 17.1233 16.2272C17.8004 15.2128 18.1613 14.0204 18.1605 12.8008C18.1605 11.1669 17.5115 9.59996 16.3561 8.44464C15.2008 7.28932 13.6339 6.64027 12 6.64027ZM12 16.7994C11.2091 16.7994 10.436 16.5649 9.77847 16.1255C9.1209 15.6862 8.60838 15.0617 8.30573 14.331C8.00309 13.6003 7.9239 12.7963 8.07819 12.0207C8.23248 11.245 8.61331 10.5325 9.17253 9.97331C9.73175 9.41409 10.4442 9.03326 11.2199 8.87897C11.9956 8.72468 12.7996 8.80387 13.5302 9.10651C14.2609 9.40916 14.8854 9.92168 15.3248 10.5793C15.7641 11.2368 15.9986 12.0099 15.9986 12.8008C15.9992 13.326 15.8961 13.8462 15.6954 14.3316C15.4946 14.817 15.2001 15.258 14.8287 15.6294C14.4572 16.0009 14.0162 16.2954 13.5308 16.4961C13.0455 16.6969 12.5253 16.8 12 16.7994ZM18.4043 4.95385C18.119 4.95385 17.8401 5.03845 17.6029 5.19697C17.3656 5.35548 17.1807 5.58079 17.0715 5.84439C16.9624 6.10799 16.9338 6.39805 16.9895 6.67788C17.0451 6.95772 17.1825 7.21477 17.3843 7.41652C17.586 7.61827 17.8431 7.75566 18.1229 7.81133C18.4027 7.86699 18.6928 7.83842 18.9564 7.72924C19.22 7.62005 19.4453 7.43515 19.6038 7.19791C19.7623 6.96068 19.8469 6.68177 19.8469 6.39645C19.8469 6.01385 19.6949 5.64691 19.4244 5.37637C19.1539 5.10583 18.7869 4.95385 18.4043 4.95385Z" fill="white"/>
</svg>
